<?xml version="1.0" encoding="UTF-8"?>
<svg id="Layer_1" data-name="Layer 1" xmlns="http://www.w3.org/2000/svg" viewBox="0 0 590.28 946.21">
  <defs>
    <style>
      .cls-1 {
        stroke-width: 11px;
      }

      .cls-1, .cls-2 {
        fill: #fff;
        stroke: #231f20;
        stroke-miterlimit: 10;
      }

      .cls-2 {
        stroke-width: 15px;
      }
    </style>
  </defs>
  <path class="cls-1" d="m396.78,939.47l-94.22-351.64,133.49-35.77,94.22,351.64c-1.19.32-54.56-67.77-87.34-58.99-32.58,8.73-44.56,94.33-46.15,94.75Z"/>
  <path class="cls-1" d="m196.28,939.47l94.22-351.64-133.49-35.77-94.22,351.64c1.19.32,54.56-67.77,87.34-58.99,32.58,8.73,44.56,94.33,46.15,94.75Z"/>
  <circle class="cls-2" cx="295.14" cy="295.14" r="287.64"/>
  <ellipse class="cls-2" cx="295.14" cy="295.14" rx="232.36" ry="239.75"/>
  <polygon class="cls-2" points="295.14 99.87 353.32 217.76 483.42 236.67 389.28 328.43 411.5 458.01 295.14 396.83 178.78 458.01 201 328.43 106.86 236.67 236.96 217.76 295.14 99.87"/>
</svg>