<svg width="27" height="27" viewBox="0 0 27 27" fill="none" xmlns="http://www.w3.org/2000/svg">
<path d="M6.53625 19.9688H18.5175C19.6313 19.9688 20.7 19.4963 21.4538 18.675C22.2075 17.8538 22.59 16.7512 22.5 15.6375L21.5662 4.4325C21.5325 4.08375 21.6563 3.74626 21.8925 3.48751C22.1288 3.22876 22.455 3.09375 22.8038 3.09375H24.75C25.2113 3.09375 25.5938 2.71125 25.5938 2.25C25.5938 1.78875 25.2113 1.40625 24.75 1.40625H22.7925C21.9712 1.40625 21.195 1.755 20.6438 2.35125C20.34 2.68875 20.115 3.08251 19.9913 3.52126H5.94C4.80375 3.52126 3.7575 3.97125 2.9925 4.78125C2.23875 5.6025 1.85625 6.67125 1.94625 7.8075L2.55375 16.245C2.67751 18.3038 4.4775 19.9688 6.53625 19.9688ZM19.935 5.19749L20.8125 15.7725C20.8688 16.425 20.655 17.0437 20.2163 17.5275C19.7775 18.0112 19.17 18.27 18.5175 18.27H6.53625C5.36625 18.27 4.30875 17.28 4.21875 16.11L3.61126 7.67251C3.56626 7.00876 3.78 6.37876 4.21875 5.91751C4.6575 5.44501 5.26501 5.18623 5.92875 5.18623H19.935V5.19749Z" fill="#292D32"/>
<path d="M8.71875 25.5938C9.95625 25.5938 10.9688 24.5812 10.9688 23.3438C10.9688 22.1062 9.95625 21.0938 8.71875 21.0938C7.48125 21.0938 6.46875 22.1062 6.46875 23.3438C6.46875 24.5812 7.48125 25.5938 8.71875 25.5938ZM8.71875 22.7812C9.03375 22.7812 9.28125 23.0287 9.28125 23.3438C9.28125 23.6588 9.03375 23.9062 8.71875 23.9062C8.40375 23.9062 8.15625 23.6588 8.15625 23.3438C8.15625 23.0287 8.40375 22.7812 8.71875 22.7812Z" fill="#292D32"/>
<path d="M17.7188 25.5938C18.9563 25.5938 19.9688 24.5812 19.9688 23.3438C19.9688 22.1062 18.9563 21.0938 17.7188 21.0938C16.4813 21.0938 15.4688 22.1062 15.4688 23.3438C15.4688 24.5812 16.4813 25.5938 17.7188 25.5938ZM17.7188 22.7812C18.0338 22.7812 18.2812 23.0287 18.2812 23.3438C18.2812 23.6588 18.0338 23.9062 17.7188 23.9062C17.4037 23.9062 17.1562 23.6588 17.1562 23.3438C17.1562 23.0287 17.4037 22.7812 17.7188 22.7812Z" fill="#292D32"/>
<path d="M3.375 9.84375H16.875C17.3363 9.84375 17.7188 9.46125 17.7188 9C17.7188 8.53875 17.3363 8.15625 16.875 8.15625H3.375C2.91375 8.15625 2.53125 8.53875 2.53125 9C2.53125 9.46125 2.91375 9.84375 3.375 9.84375Z" fill="#292D32"/>
</svg>
